<svg width="96" height="96" viewBox="0 0 96 96" xmlns="http://www.w3.org/2000/svg">
    <defs>
        <linearGradient id="bg" x1="0%" y1="0%" x2="100%" y2="100%">
            <stop offset="0%" stop-color="#eef2ff"/>
            <stop offset="100%" stop-color="#c7d2fe"/>
        </linearGradient>
        <linearGradient id="text" x1="0%" y1="0%" x2="100%" y2="100%">
            <stop offset="0%" stop-color="#312e81"/>
            <stop offset="50%" stop-color="#4338ca"/>
            <stop offset="100%" stop-color="#4f46e5"/>
        </linearGradient>
        <filter id="shadow" x="-20%" y="-20%" width="140%" height="150%">
            <feDropShadow dx="0" dy="6" stdDeviation="6" flood-color="#3730a3" flood-opacity="0.4"/>
        </filter>
    </defs>
    <rect width="96" height="96" rx="16" fill="url(#bg)"/>
    <g filter="url(#shadow)" transform="translate(14,20)">
        <path d="M5 0H16L32 27V0H43V48H32L16 21V48H5V0Z" fill="url(#text)"/>
        <path d="M66 25C66 35.4934 58.4032 43 47.5 43H35V0H47.5C58.5 0 66 7.538 66 18C66 23.1206 63.9399 27.5424 60 30.6573L69 48H57L49.5 32.5H44V25H47.5C51.6421 25 54 22.5942 54 18C54 13.4058 51.6973 11 47.5 11H44V32H47.5C54.4563 32 59 27.2843 59 20C59 12.7157 54.4563 8 47.5 8H35V51H47.5C61.3071 51 71 41.3594 71 27C71 18.4128 67.0181 11.2304 60.5 6.5C66.7906 10.1623 71 16.4447 71 25Z" fill="url(#text)"/>
    </g>
</svg>


